{
	"patcher" : 	{
		"fileversion" : 1,
		"rect" : [ 94.0, 107.0, 942.0, 612.0 ],
		"bglocked" : 0,
		"defrect" : [ 94.0, 107.0, 942.0, 612.0 ],
		"openrect" : [ 0.0, 0.0, 0.0, 0.0 ],
		"openinpresentation" : 0,
		"default_fontsize" : 12.0,
		"default_fontface" : 0,
		"default_fontname" : "Arial",
		"gridonopen" : 0,
		"gridsize" : [ 15.0, 15.0 ],
		"gridsnaponopen" : 0,
		"toolbarvisible" : 1,
		"boxanimatetime" : 200,
		"imprint" : 0,
		"metadata" : [  ],
		"boxes" : [ 			{
				"box" : 				{
					"maxclass" : "preset",
					"id" : "obj-33",
					"numinlets" : 1,
					"numoutlets" : 4,
					"patching_rect" : [ 460.0, 23.0, 100.0, 40.0 ],
					"outlettype" : [ "preset", "int", "preset", "int" ],
					"preset_data" : [ 						{
							"number" : 1,
							"data" : [ 5, "obj-2", "kslider", "int", 7, 5, "obj-8", "kslider", "int", 4 ]
						}
, 						{
							"number" : 2,
							"data" : [ 5, "obj-2", "kslider", "int", 9, 5, "obj-8", "kslider", "int", 5 ]
						}
, 						{
							"number" : 3,
							"data" : [ 5, "obj-2", "kslider", "int", 8, 5, "obj-8", "kslider", "int", 3 ]
						}
 ]
				}

			}
, 			{
				"box" : 				{
					"maxclass" : "newobj",
					"text" : "receive~ audioin",
					"fontname" : "Arial",
					"id" : "obj-32",
					"numinlets" : 1,
					"fontsize" : 12.0,
					"numoutlets" : 1,
					"patching_rect" : [ 197.0, 217.0, 98.0, 20.0 ],
					"outlettype" : [ "signal" ]
				}

			}
, 			{
				"box" : 				{
					"maxclass" : "gain~",
					"id" : "obj-31",
					"numinlets" : 2,
					"numoutlets" : 2,
					"patching_rect" : [ 46.0, 68.0, 20.0, 140.0 ],
					"outlettype" : [ "signal", "int" ]
				}

			}
, 			{
				"box" : 				{
					"maxclass" : "newobj",
					"text" : "send~ audioin",
					"fontname" : "Arial",
					"id" : "obj-30",
					"numinlets" : 1,
					"fontsize" : 12.0,
					"numoutlets" : 0,
					"patching_rect" : [ 74.0, 236.0, 86.0, 20.0 ]
				}

			}
, 			{
				"box" : 				{
					"maxclass" : "message",
					"text" : "0",
					"fontname" : "Arial",
					"id" : "obj-1",
					"numinlets" : 2,
					"fontsize" : 9.0,
					"numoutlets" : 1,
					"patching_rect" : [ 647.0, 64.0, 16.0, 15.0 ],
					"outlettype" : [ "" ],
					"hidden" : 1
				}

			}
, 			{
				"box" : 				{
					"maxclass" : "kslider",
					"id" : "obj-2",
					"presentation_rect" : [ 15.0, 15.0, 196.0, 34.0 ],
					"numinlets" : 2,
					"hkeycolor" : [ 0.501961, 0.501961, 0.501961, 1.0 ],
					"numoutlets" : 2,
					"patching_rect" : [ 661.0, 94.0, 196.0, 34.0 ],
					"offset" : -24,
					"outlettype" : [ "int", "int" ]
				}

			}
, 			{
				"box" : 				{
					"maxclass" : "comment",
					"text" : "transposition in semitones",
					"fontname" : "Arial",
					"id" : "obj-3",
					"numinlets" : 1,
					"fontsize" : 9.0,
					"numoutlets" : 0,
					"patching_rect" : [ 699.0, 150.0, 133.0, 17.0 ]
				}

			}
, 			{
				"box" : 				{
					"maxclass" : "flonum",
					"fontname" : "Arial",
					"triscale" : 0.9,
					"id" : "obj-20",
					"numinlets" : 1,
					"fontsize" : 9.0,
					"numoutlets" : 2,
					"htextcolor" : [ 0.870588, 0.870588, 0.870588, 1.0 ],
					"patching_rect" : [ 661.0, 150.0, 35.0, 17.0 ],
					"outlettype" : [ "float", "bang" ],
					"bgcolor" : [ 0.866667, 0.866667, 0.866667, 1.0 ]
				}

			}
, 			{
				"box" : 				{
					"maxclass" : "newobj",
					"text" : "expr pow(2.\\,$f1/12)",
					"fontname" : "Arial",
					"id" : "obj-21",
					"numinlets" : 1,
					"fontsize" : 9.0,
					"numoutlets" : 1,
					"patching_rect" : [ 661.0, 172.0, 112.0, 17.0 ],
					"outlettype" : [ "" ]
				}

			}
, 			{
				"box" : 				{
					"maxclass" : "newobj",
					"text" : "loadbang",
					"fontname" : "Arial",
					"id" : "obj-22",
					"numinlets" : 1,
					"fontsize" : 9.0,
					"numoutlets" : 1,
					"patching_rect" : [ 618.0, 34.0, 57.0, 17.0 ],
					"outlettype" : [ "bang" ],
					"hidden" : 1
				}

			}
, 			{
				"box" : 				{
					"maxclass" : "newobj",
					"text" : "*~ 0.8",
					"fontname" : "Arial",
					"id" : "obj-23",
					"numinlets" : 2,
					"fontsize" : 9.0,
					"numoutlets" : 1,
					"patching_rect" : [ 551.0, 328.0, 32.0, 17.0 ],
					"outlettype" : [ "signal" ]
				}

			}
, 			{
				"box" : 				{
					"maxclass" : "flonum",
					"fontname" : "Arial",
					"triscale" : 0.9,
					"id" : "obj-24",
					"numinlets" : 1,
					"fontsize" : 9.0,
					"numoutlets" : 2,
					"htextcolor" : [ 0.870588, 0.870588, 0.870588, 1.0 ],
					"patching_rect" : [ 661.0, 197.0, 35.0, 17.0 ],
					"outlettype" : [ "float", "bang" ],
					"bgcolor" : [ 0.866667, 0.866667, 0.866667, 1.0 ]
				}

			}
, 			{
				"box" : 				{
					"maxclass" : "comment",
					"text" : "pitch scaling factor",
					"fontname" : "Arial",
					"id" : "obj-25",
					"numinlets" : 1,
					"fontsize" : 9.0,
					"numoutlets" : 0,
					"patching_rect" : [ 698.0, 198.0, 102.0, 17.0 ]
				}

			}
, 			{
				"box" : 				{
					"maxclass" : "newobj",
					"text" : "pfft~ gizmo_loadme 4096 4",
					"fontname" : "Arial",
					"id" : "obj-26",
					"numinlets" : 2,
					"fontsize" : 9.0,
					"numoutlets" : 1,
					"patching_rect" : [ 550.0, 292.0, 160.0, 17.0 ],
					"outlettype" : [ "signal" ]
				}

			}
, 			{
				"box" : 				{
					"maxclass" : "comment",
					"text" : "<- double-click",
					"fontname" : "Arial",
					"id" : "obj-27",
					"numinlets" : 1,
					"fontsize" : 9.0,
					"numoutlets" : 0,
					"patching_rect" : [ 713.0, 294.0, 83.0, 17.0 ]
				}

			}
, 			{
				"box" : 				{
					"maxclass" : "panel",
					"rounded" : 0,
					"border" : 2,
					"id" : "obj-28",
					"bordercolor" : [ 1.0, 0.909804, 0.168627, 1.0 ],
					"numinlets" : 1,
					"numoutlets" : 0,
					"patching_rect" : [ 541.0, 287.0, 271.0, 27.0 ],
					"bgcolor" : [ 1.0, 1.0, 1.0, 1.0 ]
				}

			}
, 			{
				"box" : 				{
					"maxclass" : "comment",
					"text" : "^ no transposition",
					"fontname" : "Arial",
					"id" : "obj-29",
					"numinlets" : 1,
					"fontsize" : 9.0,
					"numoutlets" : 0,
					"patching_rect" : [ 759.0, 129.0, 100.0, 17.0 ]
				}

			}
, 			{
				"box" : 				{
					"maxclass" : "ezdac~",
					"id" : "obj-4",
					"numinlets" : 2,
					"numoutlets" : 0,
					"patching_rect" : [ 256.0, 440.0, 33.0, 33.0 ]
				}

			}
, 			{
				"box" : 				{
					"maxclass" : "meter~",
					"id" : "obj-5",
					"warmcolor" : [ 0.85098, 0.85098, 0.0, 1.0 ],
					"interval" : 100,
					"numinlets" : 1,
					"tepidcolor" : [ 0.6, 0.729412, 0.0, 1.0 ],
					"numoutlets" : 1,
					"patching_rect" : [ 16.0, 269.0, 80.0, 13.0 ],
					"coldcolor" : [ 0.0, 0.658824, 0.0, 1.0 ],
					"outlettype" : [ "float" ],
					"bgcolor" : [ 0.403922, 0.403922, 0.403922, 1.0 ]
				}

			}
, 			{
				"box" : 				{
					"maxclass" : "ezadc~",
					"id" : "obj-6",
					"numinlets" : 1,
					"numoutlets" : 2,
					"patching_rect" : [ 62.0, 15.0, 33.0, 33.0 ],
					"outlettype" : [ "signal", "signal" ]
				}

			}
, 			{
				"box" : 				{
					"maxclass" : "message",
					"text" : "0",
					"fontname" : "Arial",
					"id" : "obj-7",
					"numinlets" : 2,
					"fontsize" : 9.0,
					"numoutlets" : 1,
					"patching_rect" : [ 362.0, 64.0, 16.0, 15.0 ],
					"outlettype" : [ "" ],
					"hidden" : 1
				}

			}
, 			{
				"box" : 				{
					"maxclass" : "kslider",
					"id" : "obj-8",
					"presentation_rect" : [ 0.0, 0.0, 196.0, 35.0 ],
					"numinlets" : 2,
					"hkeycolor" : [ 0.501961, 0.501961, 0.501961, 1.0 ],
					"numoutlets" : 2,
					"patching_rect" : [ 376.0, 94.0, 196.0, 34.0 ],
					"offset" : -24,
					"outlettype" : [ "int", "int" ]
				}

			}
, 			{
				"box" : 				{
					"maxclass" : "comment",
					"text" : "transposition in semitones",
					"fontname" : "Arial",
					"id" : "obj-9",
					"numinlets" : 1,
					"fontsize" : 9.0,
					"numoutlets" : 0,
					"patching_rect" : [ 414.0, 150.0, 133.0, 17.0 ]
				}

			}
, 			{
				"box" : 				{
					"maxclass" : "flonum",
					"fontname" : "Arial",
					"triscale" : 0.9,
					"id" : "obj-10",
					"numinlets" : 1,
					"fontsize" : 9.0,
					"numoutlets" : 2,
					"htextcolor" : [ 0.870588, 0.870588, 0.870588, 1.0 ],
					"patching_rect" : [ 376.0, 150.0, 35.0, 17.0 ],
					"outlettype" : [ "float", "bang" ],
					"bgcolor" : [ 0.866667, 0.866667, 0.866667, 1.0 ]
				}

			}
, 			{
				"box" : 				{
					"maxclass" : "newobj",
					"text" : "expr pow(2.\\,$f1/12)",
					"fontname" : "Arial",
					"id" : "obj-11",
					"numinlets" : 1,
					"fontsize" : 9.0,
					"numoutlets" : 1,
					"patching_rect" : [ 376.0, 172.0, 112.0, 17.0 ],
					"outlettype" : [ "" ]
				}

			}
, 			{
				"box" : 				{
					"maxclass" : "newobj",
					"text" : "loadbang",
					"fontname" : "Arial",
					"id" : "obj-12",
					"numinlets" : 1,
					"fontsize" : 9.0,
					"numoutlets" : 1,
					"patching_rect" : [ 333.0, 34.0, 57.0, 17.0 ],
					"outlettype" : [ "bang" ],
					"hidden" : 1
				}

			}
, 			{
				"box" : 				{
					"maxclass" : "newobj",
					"text" : "*~ 0.8",
					"fontname" : "Arial",
					"id" : "obj-13",
					"numinlets" : 2,
					"fontsize" : 9.0,
					"numoutlets" : 1,
					"patching_rect" : [ 266.0, 328.0, 32.0, 17.0 ],
					"outlettype" : [ "signal" ]
				}

			}
, 			{
				"box" : 				{
					"maxclass" : "flonum",
					"fontname" : "Arial",
					"triscale" : 0.9,
					"id" : "obj-14",
					"numinlets" : 1,
					"fontsize" : 9.0,
					"numoutlets" : 2,
					"htextcolor" : [ 0.870588, 0.870588, 0.870588, 1.0 ],
					"patching_rect" : [ 376.0, 197.0, 35.0, 17.0 ],
					"outlettype" : [ "float", "bang" ],
					"bgcolor" : [ 0.866667, 0.866667, 0.866667, 1.0 ]
				}

			}
, 			{
				"box" : 				{
					"maxclass" : "comment",
					"text" : "pitch scaling factor",
					"fontname" : "Arial",
					"id" : "obj-15",
					"numinlets" : 1,
					"fontsize" : 9.0,
					"numoutlets" : 0,
					"patching_rect" : [ 413.0, 198.0, 102.0, 17.0 ]
				}

			}
, 			{
				"box" : 				{
					"maxclass" : "newobj",
					"text" : "pfft~ gizmo_loadme 4096 4",
					"fontname" : "Arial",
					"id" : "obj-16",
					"numinlets" : 2,
					"fontsize" : 9.0,
					"numoutlets" : 1,
					"patching_rect" : [ 265.0, 292.0, 160.0, 17.0 ],
					"outlettype" : [ "signal" ]
				}

			}
, 			{
				"box" : 				{
					"maxclass" : "comment",
					"text" : "<- double-click",
					"fontname" : "Arial",
					"id" : "obj-17",
					"numinlets" : 1,
					"fontsize" : 9.0,
					"numoutlets" : 0,
					"patching_rect" : [ 428.0, 294.0, 83.0, 17.0 ]
				}

			}
, 			{
				"box" : 				{
					"maxclass" : "panel",
					"rounded" : 0,
					"border" : 2,
					"id" : "obj-18",
					"bordercolor" : [ 1.0, 0.909804, 0.168627, 1.0 ],
					"numinlets" : 1,
					"numoutlets" : 0,
					"patching_rect" : [ 256.0, 287.0, 271.0, 27.0 ],
					"bgcolor" : [ 1.0, 1.0, 1.0, 1.0 ]
				}

			}
, 			{
				"box" : 				{
					"maxclass" : "comment",
					"text" : "^ no transposition",
					"fontname" : "Arial",
					"id" : "obj-19",
					"numinlets" : 1,
					"fontsize" : 9.0,
					"numoutlets" : 0,
					"patching_rect" : [ 474.0, 129.0, 100.0, 17.0 ]
				}

			}
 ],
		"lines" : [ 			{
				"patchline" : 				{
					"source" : [ "obj-33", 0 ],
					"destination" : [ "obj-2", 0 ],
					"hidden" : 0,
					"midpoints" : [  ]
				}

			}
, 			{
				"patchline" : 				{
					"source" : [ "obj-33", 0 ],
					"destination" : [ "obj-8", 0 ],
					"hidden" : 0,
					"midpoints" : [  ]
				}

			}
, 			{
				"patchline" : 				{
					"source" : [ "obj-32", 0 ],
					"destination" : [ "obj-26", 0 ],
					"hidden" : 0,
					"midpoints" : [  ]
				}

			}
, 			{
				"patchline" : 				{
					"source" : [ "obj-32", 0 ],
					"destination" : [ "obj-16", 0 ],
					"hidden" : 0,
					"midpoints" : [  ]
				}

			}
, 			{
				"patchline" : 				{
					"source" : [ "obj-32", 0 ],
					"destination" : [ "obj-4", 1 ],
					"hidden" : 0,
					"midpoints" : [  ]
				}

			}
, 			{
				"patchline" : 				{
					"source" : [ "obj-32", 0 ],
					"destination" : [ "obj-4", 0 ],
					"hidden" : 0,
					"midpoints" : [  ]
				}

			}
, 			{
				"patchline" : 				{
					"source" : [ "obj-31", 0 ],
					"destination" : [ "obj-30", 0 ],
					"hidden" : 0,
					"midpoints" : [  ]
				}

			}
, 			{
				"patchline" : 				{
					"source" : [ "obj-31", 0 ],
					"destination" : [ "obj-5", 0 ],
					"hidden" : 0,
					"midpoints" : [  ]
				}

			}
, 			{
				"patchline" : 				{
					"source" : [ "obj-6", 0 ],
					"destination" : [ "obj-31", 0 ],
					"hidden" : 0,
					"midpoints" : [  ]
				}

			}
, 			{
				"patchline" : 				{
					"source" : [ "obj-13", 0 ],
					"destination" : [ "obj-4", 0 ],
					"hidden" : 0,
					"midpoints" : [  ]
				}

			}
, 			{
				"patchline" : 				{
					"source" : [ "obj-13", 0 ],
					"destination" : [ "obj-4", 1 ],
					"hidden" : 0,
					"midpoints" : [  ]
				}

			}
, 			{
				"patchline" : 				{
					"source" : [ "obj-16", 0 ],
					"destination" : [ "obj-13", 0 ],
					"hidden" : 0,
					"midpoints" : [  ]
				}

			}
, 			{
				"patchline" : 				{
					"source" : [ "obj-12", 0 ],
					"destination" : [ "obj-7", 0 ],
					"hidden" : 1,
					"midpoints" : [  ]
				}

			}
, 			{
				"patchline" : 				{
					"source" : [ "obj-7", 0 ],
					"destination" : [ "obj-8", 0 ],
					"hidden" : 1,
					"midpoints" : [  ]
				}

			}
, 			{
				"patchline" : 				{
					"source" : [ "obj-8", 0 ],
					"destination" : [ "obj-10", 0 ],
					"hidden" : 0,
					"midpoints" : [  ]
				}

			}
, 			{
				"patchline" : 				{
					"source" : [ "obj-10", 0 ],
					"destination" : [ "obj-11", 0 ],
					"hidden" : 0,
					"midpoints" : [  ]
				}

			}
, 			{
				"patchline" : 				{
					"source" : [ "obj-11", 0 ],
					"destination" : [ "obj-14", 0 ],
					"hidden" : 0,
					"midpoints" : [  ]
				}

			}
, 			{
				"patchline" : 				{
					"source" : [ "obj-14", 0 ],
					"destination" : [ "obj-16", 1 ],
					"hidden" : 0,
					"midpoints" : [  ]
				}

			}
, 			{
				"patchline" : 				{
					"source" : [ "obj-24", 0 ],
					"destination" : [ "obj-26", 1 ],
					"hidden" : 0,
					"midpoints" : [  ]
				}

			}
, 			{
				"patchline" : 				{
					"source" : [ "obj-21", 0 ],
					"destination" : [ "obj-24", 0 ],
					"hidden" : 0,
					"midpoints" : [  ]
				}

			}
, 			{
				"patchline" : 				{
					"source" : [ "obj-20", 0 ],
					"destination" : [ "obj-21", 0 ],
					"hidden" : 0,
					"midpoints" : [  ]
				}

			}
, 			{
				"patchline" : 				{
					"source" : [ "obj-2", 0 ],
					"destination" : [ "obj-20", 0 ],
					"hidden" : 0,
					"midpoints" : [  ]
				}

			}
, 			{
				"patchline" : 				{
					"source" : [ "obj-1", 0 ],
					"destination" : [ "obj-2", 0 ],
					"hidden" : 1,
					"midpoints" : [  ]
				}

			}
, 			{
				"patchline" : 				{
					"source" : [ "obj-22", 0 ],
					"destination" : [ "obj-1", 0 ],
					"hidden" : 1,
					"midpoints" : [  ]
				}

			}
, 			{
				"patchline" : 				{
					"source" : [ "obj-26", 0 ],
					"destination" : [ "obj-23", 0 ],
					"hidden" : 0,
					"midpoints" : [  ]
				}

			}
, 			{
				"patchline" : 				{
					"source" : [ "obj-23", 0 ],
					"destination" : [ "obj-4", 0 ],
					"hidden" : 0,
					"midpoints" : [  ]
				}

			}
, 			{
				"patchline" : 				{
					"source" : [ "obj-23", 0 ],
					"destination" : [ "obj-4", 1 ],
					"hidden" : 0,
					"midpoints" : [  ]
				}

			}
 ]
	}

}
